<svg width="16" height="16" viewBox="0 0 16 16" fill="none" xmlns="http://www.w3.org/2000/svg">
<path d="M2 15H1.5C1.23478 15 0.98043 14.8946 0.792893 14.7071C0.605357 14.5196 0.5 14.2652 0.5 14V3.5C0.5 3.23478 0.605357 2.98043 0.792893 2.79289C0.98043 2.60536 1.23478 2.5 1.5 2.5H2C2.26522 2.5 2.51957 2.60536 2.70711 2.79289C2.89464 2.98043 3 3.23478 3 3.5V14C3 14.2652 2.89464 14.5196 2.70711 14.7071C2.51957 14.8946 2.26522 15 2 15ZM7.5 5.5C7.5 5.23478 7.39464 4.98043 7.20711 4.79289C7.01957 4.60536 6.76522 4.5 6.5 4.5H4.5C4.23478 4.5 3.98043 4.60536 3.79289 4.79289C3.60536 4.98043 3.5 5.23478 3.5 5.5V6.375C3.5 6.40815 3.51317 6.43995 3.53661 6.46339C3.56005 6.48683 3.59185 6.5 3.625 6.5H7.375C7.40815 6.5 7.43995 6.48683 7.46339 6.46339C7.48683 6.43995 7.5 6.40815 7.5 6.375V5.5ZM3.5 14C3.5 14.2652 3.60536 14.5196 3.79289 14.7071C3.98043 14.8946 4.23478 15 4.5 15H6.5C6.76522 15 7.01957 14.8946 7.20711 14.7071C7.39464 14.5196 7.5 14.2652 7.5 14V13.0625C7.5 13.0459 7.49342 13.03 7.48169 13.0183C7.46997 13.0066 7.45408 13 7.4375 13H3.5625C3.54592 13 3.53003 13.0066 3.51831 13.0183C3.50658 13.03 3.5 13.0459 3.5 13.0625V14Z" fill="black"/>
<path d="M7.4375 7.5H3.5625C3.52798 7.5 3.5 7.52798 3.5 7.5625V11.9375C3.5 11.972 3.52798 12 3.5625 12H7.4375C7.47202 12 7.5 11.972 7.5 11.9375V7.5625C7.5 7.52798 7.47202 7.5 7.4375 7.5Z" fill="black"/>
<path d="M10 15H9C8.73478 15 8.48043 14.8946 8.29289 14.7071C8.10536 14.5196 8 14.2652 8 14V2C8 1.73478 8.10536 1.48043 8.29289 1.29289C8.48043 1.10536 8.73478 1 9 1H10C10.2652 1 10.5196 1.10536 10.7071 1.29289C10.8946 1.48043 11 1.73478 11 2V14C11 14.2652 10.8946 14.5196 10.7071 14.7071C10.5196 14.8946 10.2652 15 10 15ZM15.4966 13.9203L14.4894 3.29531C14.4431 2.80625 13.96 2.45156 13.4103 2.50437L12.415 2.59812C11.8653 2.65031 11.4572 3.08906 11.5034 3.57812L12.5106 14.2031C12.5569 14.6922 13.04 15.0469 13.5897 14.9941L14.585 14.9003C15.1347 14.8481 15.5428 14.4094 15.4966 13.9203Z" fill="black"/>
</svg>
